#!OML:ASF I:\Actors\actors\Patient Classification 2\Patient 1\Session 1\actor1.ASF
:FULLY-SPECIFIED
:DEGREES
347
root -0.651529 18.75 5.56333 3.06285 -4.77238 -4.85318
lowerback 9.66327 0.182396 0.445987
upperback 3.31149 0.275449 -0.0800045
thorax -1.97757 0.136074 -0.364126
lowerneck 2.46632 -0.131115 0.0828289
upperneck -1.59066 -0.0402178 6.27555
head -0.913472 -0.0988701 1.95091
rclavicle 1.19271e-014 -1.59028e-015
rhumerus 12.6511 9.02508 -29.8411
rradius 130.387
rwrist -78.7824
rhand 35.7236 -58.6385
rfingers 7.12502
rthumb 58.7657 -73.6524
lclavicle 1.19271e-014 -1.59028e-015
lhumerus -26.7707 -25.5684 83.459
lradius 120.045
lwrist 13.8389
lhand -5.20489 -33.4389
lfingers 7.12502
lthumb 20.5965 -4.51165
rfemur 0 0 0
rtibia 0
rfoot 0 0
rtoes 0
lfemur -7.22709 -4.21872 -9.32435
ltibia 23.7273
lfoot -23.8805 15.4561
ltoes -55.0222
348
root -0.651741 18.7495 5.56598 3.0601 -4.76463 -4.84224
lowerback 9.80089 0.169282 0.457084
upperback 3.28885 0.258902 -0.111733
thorax -2.0766 0.127648 -0.401947
lowerneck 2.38292 -0.130542 0.135118
upperneck -1.57139 -0.0402537 6.2905
head -0.892942 -0.0976002 1.94589
rclavicle -1.61016e-014 1.74931e-014
rhumerus 12.806 8.64629 -29.7204
rradius 130.175
rwrist -78.5137
rhand 35.6716 -58.5655
rfingers 7.12502
rthumb 58.7207 -73.6221
lclavicle -1.61016e-014 1.74931e-014
lhumerus -26.8201 -25.5703 83.3894
lradius 120.107
lwrist 13.8695
lhand -5.14965 -33.3657
lfingers 7.12502
lthumb 20.6496 -4.44412
rfemur 0 0 0
rtibia 0
rfoot 0 0
rtoes 0
lfemur -7.22054 -4.15926 -9.33101
ltibia 23.7249
lfoot -23.8911 15.3985
ltoes -55.0333
349
root -0.651928 18.7487 5.56845 3.07139 -4.77919 -4.86132
lowerback 9.86831 0.162294 0.456788
upperback 3.28748 0.250141 -0.101922
thorax -2.11521 0.123119 -0.390926
lowerneck 2.28839 -0.119741 0.161809
upperneck -1.5373 -0.0291619 6.27631
head -0.866167 -0.0897159 1.93561
rclavicle -7.7526e-015 1.82882e-014
rhumerus 12.9689 8.27074 -29.5693
rradius 129.956
rwrist -78.131
rhand 35.7727 -58.6358
rfingers 7.12502
rthumb 58.8083 -73.6091
lclavicle -7.7526e-015 1.82882e-014
lhumerus -26.8446 -25.544 83.3827
lradius 120.161
lwrist 13.8736
lhand -5.14337 -33.2876
lfingers 7.12502
lthumb 20.6557 -4.36674
rfemur 0 0 0
rtibia 0
rfoot 0 0
rtoes 0
lfemur -7.22021 -4.15351 -9.31067
ltibia 23.7299
lfoot -23.8779 15.396
ltoes -54.9483
350
root -0.650636 18.7484 5.57224 3.08517 -4.79503 -4.86803
lowerback 9.85924 0.156552 0.458392
upperback 3.31282 0.242926 -0.0876778
thorax -2.08412 0.11959 -0.376178
lowerneck 2.27779 -0.106398 0.217221
upperneck -1.58881 -0.00790059 6.23113
head -0.880813 -0.0799197 1.91115
rclavicle -5.1684e-015 1.59028e-015
rhumerus 13.1638 7.86621 -29.3909
rradius 129.775
rwrist -77.6445
rhand 35.6798 -58.6093
rfingers 7.12502
rthumb 58.7278 -73.6591
lclavicle -5.1684e-015 1.59028e-015
lhumerus -26.8469 -25.5196 83.3987
lradius 120.217
lwrist 13.8709
lhand -5.17875 -33.2225
lfingers 7.12502
lthumb 20.6217 -4.29792
rfemur 0 0 0
rtibia 0
rfoot 0 0
rtoes 0
lfemur -7.2191 -4.19079 -9.31816
ltibia 23.7418
lfoot -23.8972 15.4539
ltoes -54.9458
351
root -0.649016 18.7483 5.57672 3.09937 -4.81098 -4.87005
lowerback 9.86415 0.150169 0.471762
upperback 3.31359 0.235852 -0.0837197
thorax -2.08605 0.116071 -0.378817
lowerneck 2.30993 -0.0930802 0.234331
upperneck -1.62776 0.0134485 6.23872
head -0.899268 -0.0708955 1.91075
rclavicle -2.5842e-015 0
rhumerus 13.3635 7.46849 -29.2238
rradius 129.591
rwrist -77.1273
rhand 35.4671 -58.372
rfingers 7.12502
rthumb 58.5434 -73.5957
lclavicle -2.5842e-015 0
lhumerus -26.8979 -25.5113 83.4246
lradius 120.266
lwrist 13.8902
lhand -5.22117 -33.1926
lfingers 7.12502
lthumb 20.5809 -4.26364
rfemur 0 0 0
rtibia 0
rfoot 0 0
rtoes 0
lfemur -7.21921 -4.26418 -9.33574
ltibia 23.755
lfoot -23.9853 15.5415
ltoes -54.9673
352
root -0.648239 18.7483 5.58085 3.12869 -4.83138 -4.91013
lowerback 9.89609 0.143706 0.515076
upperback 3.28194 0.23204 -0.070867
thorax -2.13627 0.114015 -0.389659
lowerneck 2.31087 -0.0935174 0.203038
upperneck -1.58503 0.010092 6.26669
head -0.886153 -0.0717549 1.92511
rclavicle -9.93923e-016 -1.27222e-014
rhumerus 13.4944 7.09611 -29.0959
rradius 129.381
rwrist -76.5729
rhand 35.4327 -58.1277
rfingers 7.12502
rthumb 58.5135 -73.3792
lclavicle -9.93923e-016 -1.27222e-014
lhumerus -27.0331 -25.5 83.4703
lradius 120.339
lwrist 13.8879
lhand -5.23366 -33.2353
lfingers 7.12502
lthumb 20.5689 -4.30502
rfemur 0 0 0
rtibia 0
rfoot 0 0
rtoes 0
lfemur -7.22981 -4.24381 -9.29531
ltibia 23.7597
lfoot -24.011 15.5415
ltoes -54.9463
353
root -0.647735 18.7484 5.58568 3.151 -4.85097 -4.94397
lowerback 9.91159 0.141875 0.53983
upperback 3.27005 0.232537 -0.0552473
thorax -2.15705 0.114161 -0.387582
lowerneck 2.27537 -0.0994578 0.208712
upperneck -1.54207 -0.00116349 6.25098
head -0.866072 -0.0756616 1.91866
rclavicle -8.94531e-015 9.54166e-015
rhumerus 13.6266 6.7133 -28.9453
rradius 129.178
rwrist -75.9995
rhand 35.3728 -57.9283
rfingers 7.12502
rthumb 58.4614 -73.2283
lclavicle -8.94531e-015 9.54166e-015
lhumerus -27.1001 -25.4746 83.5037
lradius 120.401
lwrist 13.9027
lhand -5.1622 -33.2357
lfingers 7.12502
lthumb 20.6376 -4.31284
rfemur 0 0 0
rtibia 0
rfoot 0 0
rtoes 0
lfemur -7.22041 -4.24098 -9.26388
ltibia 23.7525
lfoot -24.0082 15.5296
ltoes -54.9148
354
root -0.648188 18.7489 5.58955 3.16297 -4.85396 -4.9437
lowerback 9.91779 0.140613 0.505826
upperback 3.28715 0.228204 -0.0317947
thorax -2.14305 0.11193 -0.34369
lowerneck 2.21623 -0.0840012 0.209551
upperneck -1.55308 0.0186196 6.23909
head -0.859948 -0.0649074 1.91415
rclavicle -1.07344e-014 -1.59028e-014
rhumerus 13.8502 6.29001 -28.7318
rradius 128.94
rwrist -75.4694
rhand 35.3033 -57.7951
rfingers 7.12502
rthumb 58.4011 -73.1511
lclavicle -1.07344e-014 -1.59028e-014
lhumerus -27.0147 -25.4184 83.519
lradius 120.403
lwrist 13.9427
lhand -5.04373 -33.1255
lfingers 7.12502
lthumb 20.7514 -4.21501
rfemur 0 0 0
rtibia 0
rfoot 0 0
rtoes 0
lfemur -7.20223 -4.31073 -9.27049
ltibia 23.7374
lfoot -24.045 15.5371
ltoes -54.829
355
root -0.649137 18.75 5.59193 3.18124 -4.82585 -4.91037
lowerback 9.93155 0.132771 0.45486
upperback 3.29591 0.213055 -0.0290395
thorax -2.14191 0.104317 -0.31045
lowerneck 2.15955 -0.0625225 0.222371
upperneck -1.58042 0.0478492 6.23082
head -0.859658 -0.0499661 1.90871
rclavicle -7.55382e-015 -1.59028e-015
rhumerus 14.0733 5.84313 -28.5372
rradius 128.655
rwrist -74.9579
rhand 35.209 -57.6922
rfingers 7.12502
rthumb 58.3191 -73.1237
lclavicle -7.55382e-015 -1.59028e-015
lhumerus -26.9366 -25.3847 83.5162
lradius 120.398
lwrist 13.979
lhand -4.97703 -33.0861
lfingers 7.12502
lthumb 20.8155 -4.18266
rfemur 0 0 0
rtibia 0
rfoot 0 0
rtoes 0
lfemur -7.22233 -4.25544 -9.29511
ltibia 23.7191
lfoot -23.9905 15.4895
ltoes -54.8325
356
root -0.649553 18.7504 5.59566 3.19302 -4.78685 -4.87489
lowerback 9.92162 0.122446 0.424116
upperback 3.30959 0.195886 -0.0463198
thorax -2.12248 0.0958569 -0.308976
lowerneck 2.0972 -0.0600848 0.283656
upperneck -1.61344 0.0523774 6.18261
head -0.858972 -0.0472598 1.8821
rclavicle -1.96797e-014 1.59028e-014
rhumerus 14.283 5.38146 -28.389
rradius 128.408
rwrist -74.3787
rhand 35.0611 -57.4892
rfingers 7.12502
rthumb 58.1904 -73.0385
lclavicle -1.96797e-014 1.59028e-014
lhumerus -26.8969 -25.3869 83.4847
lradius 120.42
lwrist 14.0457
lhand -4.96075 -33.1342
lfingers 7.12502
lthumb 20.8311 -4.23254
rfemur 0 0 0
rtibia 0
rfoot 0 0
rtoes 0
lfemur -7.24295 -4.22004 -9.32708
ltibia 23.7027
lfoot -23.9273 15.4884
ltoes -54.9142
357
root -0.64902 18.7497 5.60063 3.19854 -4.76842 -4.88203
lowerback 9.88743 0.112524 0.422435
upperback 3.33374 0.182579 -0.0385515
thorax -2.07884 0.0893461 -0.298321
lowerneck 1.98765 -0.0614845 0.31703
upperneck -1.60514 0.0475035 6.13171
head -0.837014 -0.0473321 1.8592
rclavicle -1.19271e-014 -1.59028e-015
rhumerus 14.493 4.96262 -28.2409
rradius 128.223
rwrist -73.5728
rhand 34.8131 -57.0873
rfingers 7.12502
rthumb 57.9742 -72.8318
lclavicle -1.19271e-014 -1.59028e-015
lhumerus -26.8458 -25.3645 83.465
lradius 120.44
lwrist 14.1234
lhand -4.95761 -33.1437
lfingers 7.12502
lthumb 20.8341 -4.24234
rfemur 0 0 0
rtibia 0
rfoot 0 0
rtoes 0
lfemur -7.22656 -4.35847 -9.33497
ltibia 23.6862
lfoot -24.0015 15.5945
ltoes -54.901
358
root -0.647631 18.749 5.60617 3.19993 -4.7691 -4.88723
lowerback 9.87869 0.105303 0.432683
upperback 3.32932 0.174136 -0.0326698
thorax -2.07866 0.0851464 -0.297022
lowerneck 1.85462 -0.0633541 0.323904
upperneck -1.50454 0.0360664 6.09908
head -0.782162 -0.0482661 1.84628
rclavicle -1.61016e-014 7.95139e-015
rhumerus 14.6345 4.61273 -28.1199
rradius 128.01
rwrist -72.6986
rhand 34.679 -56.7355
rfingers 7.12502
rthumb 57.8572 -72.5844
lclavicle -1.61016e-014 7.95139e-015
lhumerus -26.8462 -25.3334 83.4829
lradius 120.439
lwrist 14.1427
lhand -4.96245 -33.1223
lfingers 7.12502
lthumb 20.8295 -4.22046
rfemur 0 0 0
rtibia 0
rfoot 0 0
rtoes 0
lfemur -7.19529 -4.44069 -9.34985
ltibia 23.6719
lfoot -24.0636 15.6623
ltoes -54.8742
359
root -0.646527 18.7491 5.61275 3.19037 -4.77731 -4.84469
lowerback 9.90595 0.110428 0.428634
upperback 3.29399 0.180055 -0.0592946
thorax -2.1301 0.088013 -0.323087
lowerneck 1.79078 -0.0833345 0.331742
upperneck -1.44234 0.00434368 6.07808
head -0.750664 -0.0614842 1.8378
rclavicle -1.39149e-014 1.82882e-014
rhumerus 14.7521 4.27414 -28.0107
rradius 127.738
rwrist -72.0313
rhand 34.6252 -56.5333
rfingers 7.12502
rthumb 57.8101 -72.4239
lclavicle -1.39149e-014 1.82882e-014
lhumerus -26.8908 -25.3408 83.5299
lradius 120.447
lwrist 14.1217
lhand -4.9785 -33.0567
lfingers 7.12502
lthumb 20.8141 -4.1531
rfemur 0 0 0
rtibia 0
rfoot 0 0
rtoes 0
lfemur -7.15761 -4.46657 -9.41615
ltibia 23.6638
lfoot -24.0876 15.7227
ltoes -54.9153
360
root -0.645309 18.749 5.61887 3.17044 -4.77284 -4.79967
lowerback 9.95006 0.115658 0.42443
upperback 3.25855 0.186144 -0.086066
thorax -2.19091 0.0909331 -0.349305
lowerneck 1.79092 -0.107906 0.339297
upperneck -1.46901 -0.0270008 6.07174
head -0.757989 -0.0777186 1.83495
rclavicle 7.95139e-016 -7.95139e-015
rhumerus 14.8901 3.91713 -27.8557
rradius 127.52
rwrist -71.3415
rhand 34.3489 -56.2437
rfingers 7.12502
rthumb 57.5686 -72.346
lclavicle 7.95139e-016 -7.95139e-015
lhumerus -26.9125 -25.3538 83.5698
lradius 120.475
lwrist 14.1461
lhand -4.98999 -32.9651
lfingers 7.12502
lthumb 20.803 -4.06029
rfemur 0 0 0
rtibia 0
rfoot 0 0
rtoes 0
lfemur -7.11248 -4.55063 -9.48546
ltibia 23.6526
lfoot -24.1408 15.8045
ltoes -54.9374
